<?xml version="1.0" encoding="UTF-8"?><!DOCTYPE svg PUBLIC "-//W3C//DTD SVG 1.1//EN" "http://www.w3.org/Graphics/SVG/1.1/DTD/svg11.dtd"><svg xmlns="http://www.w3.org/2000/svg"><symbol id="icon-arrow-next" viewBox="0 0 22 16">
    <path d="M13.293 15.707a1 1 0 0 1-.083-1.32l.083-.094L18.585 9H1a1 1 0 0 1-.117-1.993L1 7h17.585l-5.292-5.293a1 1 0 0 1-.083-1.32l.083-.094a1 1 0 0 1 1.32-.083l.094.083 7 7 .073.082.007.008-.08-.09A1.008 1.008 0 0 1 22 7.98v.037c0 .024-.002.048-.004.071L22 8a1.008 1.008 0 0 1-.21.613 1.037 1.037 0 0 1-.083.094l-7 7a1 1 0 0 1-1.414 0z"/>
</symbol><symbol id="icon-arrow-prev" viewBox="0 0 22 16">
    <path d="M8.707.293a1 1 0 0 1 .083 1.32l-.083.094L3.415 7H21a1 1 0 0 1 .117 1.993L21 9H3.415l5.292 5.293a1 1 0 0 1 .083 1.32l-.083.094a1 1 0 0 1-1.32.083l-.094-.083-7-7-.073-.082a1.005 1.005 0 0 1-.007-.008l.08.09A1.008 1.008 0 0 1 0 8.02v-.037c0-.024.002-.048.004-.071L0 8a1.008 1.008 0 0 1 .21-.613c.028-.035.054-.066.083-.094l7-7a1 1 0 0 1 1.414 0z"/>
</symbol><symbol id="icon-facebook" viewBox="0 0 16 16">
    <path fill-rule="evenodd" clip-rule="evenodd" d="M16 8.048a8 8 0 1 0-9.25 7.9V10.36H4.719V8.048H6.75V6.285a2.822 2.822 0 0 1 3.02-3.112c.601.008 1.2.06 1.792.156v1.97h-1.008a1.155 1.155 0 0 0-1.3 1.25v1.5h2.219l-.355 2.313H9.25v5.59A8 8 0 0 0 16 8.049z"/>
</symbol><symbol id="icon-instagram" viewBox="0 0 16 16">
    <path fill-rule="evenodd" clip-rule="evenodd" d="M0 12c0 2.056 1.944 4 4 4h8c2.056 0 4-1.944 4-4V4c0-2.056-1.944-4-4-4H4C1.944 0 0 1.944 0 4v8zm2-8c0-.935 1.065-2 2-2h8c.935 0 2 1.065 2 2v8c0 .935-1.065 2-2 2H4c-.953 0-2-1.047-2-2V4zm11.105-.108a.96.96 0 1 1-1.92 0 .96.96 0 0 1 1.92 0zM8 12c-2.206 0-4-1.794-4-4s1.794-4 4-4 4 1.794 4 4-1.794 4-4 4zm0-6c-1.103 0-2 .897-2 2s.897 2 2 2 2-.897 2-2-.897-2-2-2z"/>
</symbol><symbol id="icon-youtube" viewBox="0 0 16 12">
    <path fill-rule="evenodd" clip-rule="evenodd" d="M15.8 2.8C15.6 1.5 15 .6 13.6.4 11.4 0 8 0 8 0S4.6 0 2.4.4C1 .6.3 1.5.2 2.8 0 4.1 0 6 0 6s0 1.9.2 3.2c.2 1.3.8 2.2 2.2 2.4C4.6 12 8 12 8 12s3.4 0 5.6-.4c1.4-.3 2-1.1 2.2-2.4C16 7.9 16 6 16 6s0-1.9-.2-3.2zM6 9V3l5 3-5 3z"/>
</symbol><symbol viewBox="0 0 48 48" id="icon-linkedin">
    <path fill-rule="evenodd" clip-rule="evenodd" d="M44.4469 0H3.54375C1.58437 0 0 1.54688 0 3.45938V44.5312C0 46.4437 1.58437 48 3.54375 48H44.4469C46.4062 48 48 46.4438 48 44.5406V3.45938C48 1.54688 46.4062 0 44.4469 0ZM14.2406 40.9031H7.11563V17.9906H14.2406V40.9031ZM10.6781 14.8688C8.39062 14.8688 6.54375 13.0219 6.54375 10.7437C6.54375 8.46562 8.39062 6.61875 10.6781 6.61875C12.9563 6.61875 14.8031 8.46562 14.8031 10.7437C14.8031 13.0125 12.9563 14.8688 10.6781 14.8688ZM40.9031 40.9031H33.7875V29.7656C33.7875 27.1125 33.7406 23.6906 30.0844 23.6906C26.3812 23.6906 25.8187 26.5875 25.8187 29.5781V40.9031H18.7125V17.9906H25.5375V21.1219H25.6312C26.5781 19.3219 28.9031 17.4188 32.3625 17.4188C39.5719 17.4188 40.9031 22.1625 40.9031 28.3313V40.9031Z"></path>
</symbol></svg>